<svg width="37" height="36" viewBox="0 0 37 36" fill="none" xmlns="http://www.w3.org/2000/svg">
<path d="M24.9435 13.3438C18.6874 13.3438 13.6157 18.4165 13.6157 24.6715C13.6157 30.9276 18.6875 35.9993 24.9435 35.9993C31.1985 35.9993 36.2702 30.9276 36.2702 24.6716C36.2702 18.4166 31.1985 13.3438 24.9435 13.3438ZM29.4452 23.7429H26.3437L26.0094 24.262V25.5039H29.4452V25.5083V27.0137V27.2661H26.0094V29.9271H23.8776V27.2661H20.4396V27.0137V25.5083V25.5039H23.8776V24.2642L23.5411 23.7429H20.4396V22.2364H22.5737L20.7607 19.4161H22.5693L24.9436 23.1098L27.3178 19.4161H29.1264L27.3133 22.2365H29.4452V23.7429Z" fill="white"/>
<path d="M18.3985 3.91725C18.3985 6.0812 14.2809 7.83336 9.1993 7.83336C4.11765 7.83336 0 6.0812 0 3.91725C0 1.75329 4.11758 0 9.19923 0C14.2809 0 18.3985 1.75329 18.3985 3.91725Z" fill="white"/>
<path d="M0 10.5489C0 12.7117 4.11758 14.465 9.19923 14.465C14.2809 14.465 18.3985 12.7117 18.3985 10.5489V9.57483C18.3985 9.27596 18.2479 8.99593 17.9988 8.83101C17.7498 8.66716 17.4333 8.63734 17.1588 8.75465C17.1588 8.75465 14.2809 10.5334 9.19923 10.5334C4.11758 10.5334 1.2419 8.75458 1.2419 8.75458C0.965197 8.63726 0.648612 8.66716 0.400672 8.83094C0.150535 8.99593 0 9.27596 0 9.57483V10.5489Z" fill="white"/>
<path d="M12.1722 17.1716C11.4218 18.4335 10.8628 19.8126 10.523 21.2737C10.088 21.3024 9.64855 21.3146 9.19695 21.3146C4.11969 21.3146 0.000976562 19.5602 0.000976562 17.3941V16.4255C0.000976562 16.1267 0.148182 15.8455 0.400586 15.6806C0.64633 15.5167 0.963977 15.4869 1.23962 15.6042C1.23962 15.6042 4.11969 17.3819 9.19695 17.3819C10.295 17.3819 11.2867 17.3 12.1722 17.1716Z" fill="white"/>
<path d="M10.5352 28.1232C10.1013 28.1531 9.64855 28.1642 9.19695 28.1642C4.11969 28.1642 0.000976562 26.4097 0.000976562 24.2503V23.2762C0.000976562 22.9773 0.148182 22.6951 0.400586 22.5302C0.64633 22.3663 0.963977 22.3365 1.23962 22.4538C1.23962 22.4538 4.11969 24.2325 9.19695 24.2325C9.52019 24.2325 9.83118 24.227 10.1356 24.2148C10.1245 24.3676 10.1245 24.5204 10.1245 24.6731C10.1245 25.8574 10.2651 27.0141 10.5352 28.1232Z" fill="white"/>
<path d="M13.8392 34.472C12.4766 34.8173 10.8938 35.0121 9.19695 35.0121C4.11969 35.0121 0.000976562 33.2566 0.000976562 31.0971V30.123C0.000976562 29.8242 0.148182 29.5419 0.400586 29.3781C0.64633 29.2142 0.963977 29.1844 1.23962 29.3006C1.23962 29.3006 4.11969 31.0793 9.19695 31.0793C10.0305 31.0793 10.8108 31.0328 11.5214 30.9498C12.1258 32.2361 12.9061 33.4216 13.8392 34.472Z" fill="white"/>
</svg>
