<svg width="64" height="58" viewBox="0 0 64 58" fill="none" xmlns="http://www.w3.org/2000/svg">
<g clip-path="url(#clip0_140_2904)">
<path d="M45.1068 10.694C45.083 10.6859 44.7839 10.5841 42.207 9.70703L38.5102 20.5684L41.41 21.5553C42.6801 21.9876 43.9955 21.4998 44.3476 20.4654L46.7697 13.349C47.1218 12.3146 46.3769 11.1263 45.1068 10.694Z" fill="#996D00"/>
<path d="M22.5316 25.4473C19.0846 35.5745 20.5559 47.2117 26.1454 49.1142C26.431 49.2114 26.691 49.2999 26.9464 49.3868L30.6603 38.475C29.7915 37.99 29.2769 37.1214 29.4231 36.2849C29.4231 36.2849 29.6485 33.5032 31.3669 28.4545C33.0853 23.4058 34.6037 21.0642 34.6037 21.0642C34.9982 20.3122 35.9358 19.9379 36.9201 20.0836L40.6341 9.17189C40.3788 9.08499 40.1187 8.99647 39.8332 8.89928C34.2437 6.99682 25.9785 15.3201 22.5316 25.4473Z" fill="#996D00"/>
<path d="M35.1158 40.0475L32.2161 39.0605L28.5193 49.9218C31.0962 50.7989 31.3952 50.9007 31.419 50.9088C32.6891 51.3411 34.0043 50.8541 34.3564 49.8195L36.7785 42.7032C37.1306 41.6687 36.3859 40.4798 35.1158 40.0475Z" fill="#996D00"/>
</g>
<defs>
<clipPath id="clip0_140_2904">
<rect width="52.1905" height="42.4805" fill="white" transform="translate(13.6877) rotate(18.7968)"/>
</clipPath>
</defs>
</svg>
