<svg width="40" height="48" viewBox="0 0 40 48" fill="none" xmlns="http://www.w3.org/2000/svg">
<path d="M39.5075 25.349C36.816 14.6181 26.393 10.5817 25.4813 9.59985L28.0443 0.269386C28.0443 0.269386 24.8438 -0.764885 20.3551 1.16221C14.6469 3.61307 11.4667 0.488321 11.4667 0.488321L14.2836 9.74578C13.4011 10.7509 2.31428 15.2571 0.308383 25.861C-1.42321 34.9828 3.99471 48.001 20.1873 47.7909C36.3813 47.578 41.7715 34.3585 39.5075 25.349ZM27.6082 26.2637V28.8078H22.3668L21.493 30.1688V31.791H27.6082V34.3366H21.493V38.7684H18.5083V34.3366H12.393V31.791H18.5083V30.1688L17.633 28.8078H12.393V26.2637H15.9963L11.7089 19.5926H14.765L20.0006 27.7385L25.2377 19.5926H28.2909L24.005 26.2637H27.6082Z" fill="white"/>
</svg>
