<svg width="38" height="29" viewBox="0 0 38 29" fill="none" xmlns="http://www.w3.org/2000/svg">
<path d="M33.403 20.932H4.59695C3.49755 20.932 2.60581 20.0402 2.60581 18.9409V1.99002C2.60581 0.891811 3.49762 0 4.59695 0H33.403C34.5024 0 35.3931 0.891811 35.3931 1.99002V18.9409C35.3931 20.0402 34.5024 20.932 33.403 20.932ZM32.3501 2.67425H5.64996V17.7893H32.3501V2.67425Z" fill="white"/>
<path d="M0.294647 26.4549L3.84556 23.3029C4.07401 23.1011 4.4022 22.9863 4.74895 22.9863H33.2512C33.5979 22.9863 33.9261 23.1011 34.1546 23.3029L37.7054 26.4549C37.8956 26.6231 38 26.84 38 27.0638V28.162C38 28.4183 37.7321 28.6247 37.4016 28.6247H0.598423C0.266743 28.6247 0 28.4183 0 28.162V27.0638C7.24792e-05 26.84 0.104424 26.6231 0.294647 26.4549ZM23.0716 26.8272L22.0441 25.4379H15.5326L14.5063 26.8272H23.0716Z" fill="white"/>
</svg>
