<svg width="76" height="76" viewBox="0 0 76 76" fill="none" xmlns="http://www.w3.org/2000/svg">
<path d="M24.3349 31.9693L32.5608 38.3146C32.8774 40.8727 35.0338 42.8621 37.6796 42.8621C40.5428 42.8621 42.8626 40.541 42.8626 37.6791C42.8626 37.5681 42.837 37.4654 42.83 37.3556L54.8851 23.0939C55.7273 22.15 55.7414 20.7903 54.9213 20.0612C54.1001 19.33 52.7532 19.5053 51.9134 20.4491L40.0671 33.1047C39.3499 32.7285 38.5451 32.4961 37.6795 32.4961C36.7519 32.4961 35.8947 32.759 35.1423 33.1854L27.3965 27.792C26.3977 27.0561 24.9001 27.3971 24.0532 28.5514C23.2088 29.7029 23.3325 31.2344 24.3349 31.9693Z" fill="white"/>
<path d="M37.6796 0C36.0278 0 34.6892 1.3388 34.6892 2.99052C34.6892 4.64224 36.028 5.9809 37.6796 5.9809C46.443 5.98207 54.3478 9.52395 60.0939 15.2652C65.8353 21.0102 69.3772 28.9161 69.3782 37.6796C69.3772 46.443 65.8353 54.3478 60.0939 60.0939C54.3478 65.8353 46.443 69.3771 37.6796 69.3782C28.9163 69.3771 21.0102 65.8352 15.2654 60.0939C9.52395 54.3478 5.98207 46.443 5.9809 37.6796C5.98207 31.312 7.86046 25.399 11.0881 20.4368L13.8636 22.5112C14.1638 22.7355 14.5609 22.7916 14.9126 22.6584C15.263 22.5253 15.5247 22.2251 15.6018 21.8559L17.4696 13.0214C17.8026 12.45 17.945 11.7936 17.8644 11.1487L18.7089 7.15603C18.7989 6.73566 18.6342 6.30323 18.2918 6.04507C17.9471 5.78926 17.4858 5.75423 17.1073 5.95985L3.89203 13.1042C3.56028 13.2853 3.34421 13.6194 3.31742 13.9943C3.28931 14.3681 3.45519 14.7326 3.75662 14.9581L6.28439 16.8469C2.31759 22.8162 -0.00102996 29.9826 3.43223e-07 37.6796C0.00235532 58.491 16.8681 75.3568 37.6796 75.3591C58.4912 75.3568 75.3569 58.491 75.3591 37.6796C75.3569 16.8681 58.4912 0.00235497 37.6796 0Z" fill="white"/>
</svg>
