<svg width="74" height="74" viewBox="0 0 74 74" fill="none" xmlns="http://www.w3.org/2000/svg">
<path d="M67.1987 39.254C63.0322 22.6418 46.8967 16.3932 45.4852 14.8733L49.453 0.42912C49.453 0.42912 44.4984 -1.172 37.5496 1.81127C28.7129 5.60536 23.7898 0.768046 23.7898 0.768046L28.1506 15.0992C26.7843 16.6552 9.62122 23.631 6.51597 40.0466C3.83535 54.1677 12.2226 74.3207 37.2899 73.9955C62.3592 73.6659 70.7036 53.2012 67.1987 39.254ZM48.7779 40.6699V44.6084H40.6638L39.3111 46.7154V49.2266H48.7779V53.1674H39.3111V60.028H34.6906V53.1674H25.2238V49.2266H34.6906V46.7154L33.3356 44.6084H25.2238V40.6699H30.8018L24.1647 30.3428H28.8958L37.0008 42.9531L45.1081 30.3428H49.8347L43.1999 40.6699H48.7779Z" fill="#2854AD"/>
</svg>
