<svg width="90" height="90" viewBox="0 0 90 90" fill="none" xmlns="http://www.w3.org/2000/svg">
<path d="M65.2502 34.553V28.8091C65.2502 17.6247 56.1859 8.56055 44.9999 8.56055C33.8139 8.56055 24.7527 17.6249 24.7527 28.8091V34.553C24.7527 45.7356 33.8139 54.8016 44.9999 54.8016C56.1859 54.8016 65.2502 45.7356 65.2502 34.553ZM44.9999 51.12C35.8665 51.12 28.4342 43.6878 28.4342 34.553V28.8091C28.4342 28.1767 28.475 27.5521 28.5471 26.9387C38.2267 26.2027 44.9025 24.2629 49.3877 22.24C52.1935 24.0291 56.0853 25.917 61.5059 27.56C61.5372 27.9728 61.5687 28.3869 61.5687 28.8091V34.553C61.5687 43.6878 54.1363 51.12 44.9999 51.12Z" fill="#2854AD"/>
<path d="M18.623 41.5946C21.0837 41.5946 23.0767 39.5984 23.0767 37.1408V26.0051C23.0767 24.2726 22.0755 22.7895 20.6318 22.0521C21.837 17.8697 24.0687 14.1223 27.0691 11.1201C31.6703 6.52043 38.0041 3.67998 45 3.67998C51.9993 3.67998 58.333 6.52043 62.9341 11.1201C65.9753 14.1646 68.2258 17.9764 69.4153 22.2277C68.1472 23.0124 67.2935 24.4042 67.2935 26.0051V37.1408C67.2935 38.9048 68.326 40.4177 69.817 41.1379C69.2237 43.371 68.3731 45.4896 67.3594 47.3541C66.3645 49.1824 65.2187 50.7611 64.0387 51.9694C63.1536 51.3025 62.0643 50.8945 60.8718 50.8945C57.9496 50.8945 55.5831 53.2626 55.5831 56.1846C55.5831 59.1066 57.9496 61.4763 60.8718 61.4763C63.7938 61.4763 66.1635 59.1068 66.1635 56.1846C66.1635 55.5333 66.0317 54.9165 65.8151 54.3391L66.0851 54.0863C69.0166 51.0921 71.4679 46.549 72.739 41.4738C74.7195 41.0203 76.1978 39.2563 76.1978 37.1408V26.0051C76.1978 24.0214 74.8921 22.358 73.0969 21.7837C69.8579 9.27299 58.5118 0.00316406 45 0C31.4411 0.00316406 20.0668 9.33732 16.8717 21.9122C15.2866 22.5933 14.1724 24.1689 14.1724 26.0051V37.1408C14.1725 39.5984 16.1654 41.5946 18.623 41.5946Z" fill="#2854AD"/>
<path d="M65.9753 61.8789L45 80.7986L24.0277 61.8789C14.2195 67.7954 9.12549 78.126 9.12549 89.9995H45H80.8745C80.8745 78.1276 75.7837 67.7954 65.9753 61.8789Z" fill="#2854AD"/>
<path d="M40.3987 69.7587L44.9999 73.4387L49.6012 69.7587V59.6367H40.3987V69.7587Z" fill="#2854AD"/>
<path d="M37.1564 30.041C35.7598 30.041 34.6267 31.1741 34.6267 32.5723C34.6267 33.9706 35.7598 35.1021 37.1564 35.1021C38.5531 35.1021 39.6862 33.9706 39.6862 32.5723C39.6862 31.1741 38.5533 30.041 37.1564 30.041Z" fill="#2854AD"/>
<path d="M52.8465 30.041C51.4466 30.041 50.3135 31.1741 50.3135 32.5723C50.3135 33.9706 51.4466 35.1021 52.8465 35.1021C54.2432 35.1021 55.3762 33.9706 55.3762 32.5723C55.3762 31.1741 54.2432 30.041 52.8465 30.041Z" fill="#2854AD"/>
</svg>
