<svg width="95" height="97" viewBox="0 0 95 97" fill="none" xmlns="http://www.w3.org/2000/svg">
<g clip-path="url(#clip0_140_2860)">
<path d="M60.2485 33.0786C57.9138 32.6823 52.5398 32.6387 48.0151 33.6455C47.7252 33.4499 47.4347 33.2478 47.1482 33.068C46.2735 32.5211 45.4157 32.0586 44.5637 31.71C43.7376 31.3745 42.914 31.1434 42.0523 31.0969V31.0931C40.7617 30.9861 39.5087 30.9386 38.3566 30.9386C36.6026 30.9412 35.1064 31.0403 33.9975 31.2292H34.002C33.8487 31.253 33.6806 31.2676 33.4981 31.2676C32.5399 31.2794 31.2136 30.8145 30.0103 30.1432C29.1991 29.6993 28.1938 29.9344 27.653 30.6955L14.4467 49.2911C13.9969 49.9238 13.9808 50.7813 14.4045 51.434C14.7396 51.9466 15.0198 52.4788 15.2048 53.0114C15.4707 53.7631 15.8557 54.4461 16.3001 55.1107C16.745 55.7724 17.2531 56.4145 17.7834 57.0276L17.9912 57.2309C17.9912 57.2309 18.9421 58.0315 20.4573 59.305C20.0619 59.8838 19.8446 60.5707 19.8368 61.2946C19.8272 62.2485 20.181 63.1522 20.8358 63.8352C21.5008 64.5288 22.3897 64.9105 23.3401 64.9105C24.0059 64.9105 24.6423 64.715 25.1967 64.3569C24.8262 64.9276 24.6204 65.5922 24.6126 66.2911C24.6022 67.245 24.9573 68.1473 25.6114 68.829C26.2751 69.5239 27.1648 69.9057 28.1157 69.9057C28.8627 69.9057 29.5698 69.6573 30.1664 69.2134C29.0809 70.6032 29.1397 72.6309 30.3875 73.9349C31.0514 74.6272 31.9402 75.0089 32.8898 75.0089H32.8906C33.8118 75.0089 34.6826 74.6458 35.345 73.9838L35.9925 73.3272C35.7215 73.8345 35.5597 74.3972 35.5532 74.9906C35.5435 75.9456 35.8974 76.848 36.552 77.5309C37.2164 78.2232 38.1059 78.605 39.0563 78.605C39.9768 78.605 40.8468 78.2431 41.5152 77.5772L41.9093 77.1689C42.1065 77.3275 42.2865 77.4701 42.4333 77.5865C42.5535 77.6789 42.6559 77.7583 42.7496 77.8271L42.8888 77.9275L43.086 78.0518C43.8267 78.4665 44.5351 78.6463 45.0984 78.773C45.3792 78.8325 45.6198 78.8734 45.7983 78.8984L46.0158 78.9276L46.0837 78.9342L46.1095 78.9369L46.1256 78.9395L46.1431 78.9409L46.1665 78.9422C46.1878 78.9422 46.1774 78.9448 46.2898 78.9475L46.4225 78.9422C47.6564 78.8497 48.8246 78.4163 49.7835 77.6687C50.165 77.3701 50.499 77.0094 50.7979 76.6146C51.3885 76.8101 52.014 76.9262 52.6649 76.9262C55.3048 76.9251 57.5266 75.2062 58.3869 72.8151C58.4827 72.8084 58.5779 72.8045 58.6721 72.7795C59.0072 72.8416 59.347 72.8865 59.6988 72.8865C62.3183 72.8839 64.5352 71.1983 65.4099 68.8386C65.4158 68.8333 65.4216 68.8309 65.4273 68.8267L65.6329 68.8466C69.0169 68.8466 71.7561 66.0471 71.7574 62.5939C71.7595 61.6347 71.6294 60.5739 71.2717 59.4708C73.5942 57.3756 76.9977 54.1388 77.6129 52.3818C77.9093 51.5363 79.5751 49.5086 80.059 48.8174L66.9555 30.3658C65.2843 31.332 62.0411 33.3851 60.2485 33.0786ZM68.0814 62.5931C68.0795 63.9737 66.9856 65.0913 65.6333 65.0939C65.2982 65.0939 64.9852 65.0253 64.6935 64.9011C64.6644 64.8878 64.6339 64.8851 64.6048 64.8759L62.3341 62.0553C61.7596 61.3763 60.7536 61.2997 60.0879 61.8861C59.4216 62.4726 59.3479 63.5006 59.9229 64.1809L62.1192 66.9142C61.9788 68.1574 60.9555 69.131 59.6989 69.1323C59.1024 69.131 58.5734 68.9144 58.1405 68.5511L55.9611 65.8373C55.3859 65.1583 54.3799 65.0831 53.7143 65.6697C53.0478 66.2562 52.9747 67.2842 53.5492 67.963L55.0675 69.8947C55.0649 70.0148 55.0534 70.1351 55.074 70.2554C55.1005 70.4073 55.1128 70.5445 55.1128 70.6714C55.1109 72.0533 54.0164 73.1695 52.6649 73.1722C52.3116 73.1722 51.9863 73.089 51.6861 72.9543L49.0298 70.1034C48.3887 69.4877 47.3809 69.5195 46.7778 70.1747C46.1742 70.8287 46.2054 71.8591 46.8457 72.4733L48.0922 73.9662C47.9674 74.2398 47.8011 74.4868 47.5482 74.6874C47.2241 74.9411 46.7784 75.1154 46.2713 75.1736C46.1232 75.1512 45.9219 75.1167 45.6826 75.0588C45.3857 74.9902 45.0725 74.8778 44.9101 74.7905C44.8539 74.7485 44.7103 74.6401 44.5027 74.4734C44.3848 74.3809 44.2511 74.2754 44.1022 74.1538C44.3713 72.9992 44.0815 71.7335 43.2088 70.822C42.5444 70.1284 41.6549 69.7467 40.7045 69.7467C40.1701 69.7467 39.6578 69.8814 39.1867 70.1154L39.1726 70.1034L39.1888 70.0849C39.8571 69.4165 40.231 68.5234 40.2412 67.567C40.2509 66.6118 39.8957 65.7094 39.2411 65.0278C38.5772 64.3355 37.6873 63.9525 36.7375 63.9525C35.9948 63.9525 35.291 64.198 34.6971 64.6368C35.1776 64.0184 35.4567 63.268 35.465 62.4662C35.4754 61.511 35.1203 60.6086 34.4661 59.927C33.8018 59.2321 32.9123 58.8503 31.9619 58.8503C31.0414 58.8503 30.1712 59.2123 29.5088 59.8754L28.9182 60.4752C29.6467 59.1277 29.4786 57.4023 28.3721 56.2478C27.7071 55.5542 26.8176 55.1724 25.8673 55.1724C24.9468 55.1724 24.0765 55.5343 23.4128 56.1976L23.0221 56.5979C22.7445 56.3639 22.4721 56.1354 22.2315 55.9333C21.3271 55.1749 20.704 54.6492 20.4537 54.4378C20.0307 53.945 19.6392 53.4496 19.3332 52.9899C19.0046 52.5038 18.7718 52.0533 18.6669 51.7481C18.5129 51.3068 18.3292 50.8921 18.1294 50.4985L29.7391 34.1526C30.8869 34.6427 32.1425 35.0112 33.4979 35.0207C33.8588 35.0207 34.2282 34.9942 34.6026 34.9309H34.6073C35.3802 34.7962 36.7581 34.6903 38.3562 34.6931C39.4101 34.6905 40.5694 34.7354 41.7545 34.8331L41.8354 34.8384C42.1265 34.8464 42.6112 34.9521 43.1997 35.1952L43.333 35.2573C38.3737 37.544 31.3455 41.9435 29.0358 42.7307C26.3983 43.6277 26.1777 47.2198 32.112 47.8921C38.0475 48.5672 43.3226 44.7493 44.6411 44.0783C45.5875 43.5948 51.6006 44.1853 54.9311 44.5578C56.3997 46.0387 57.6871 47.4126 58.6257 48.451L65.9406 57.5823L65.9728 57.6194C66.9102 58.7277 67.4188 59.6273 67.7073 60.3989C67.9929 61.1703 68.0795 61.8361 68.0814 62.5931Z" fill="#2854AD"/>
<path d="M94.7478 43.5033L77.0713 18.6113C76.6436 18.0075 75.8194 17.8754 75.2294 18.3113L67.3997 24.1084C66.8096 24.5444 66.6782 25.3872 67.1065 25.9897L84.7832 50.8817C85.2107 51.4842 86.0349 51.6189 86.6249 51.183L94.4559 45.3848C95.0448 44.9471 95.1768 44.1056 94.7478 43.5033ZM88.7333 45.7398C87.7512 46.4664 86.3759 46.2418 85.6628 45.2391C84.9505 44.2365 85.17 42.8334 86.1532 42.1055C87.1359 41.3776 88.5101 41.6021 89.2229 42.6034C89.9352 43.6075 89.7159 45.0119 88.7333 45.7398Z" fill="#2854AD"/>
<path d="M27.6014 24.1084L19.7702 18.3113C19.1814 17.8754 18.3567 18.0075 17.9284 18.6113L0.251191 43.5035C-0.177051 44.106 -0.0438285 44.9475 0.544912 45.3848L8.37462 51.183C8.96466 51.6189 9.78867 51.4842 10.2156 50.8817L27.893 25.9897C28.3213 25.3872 28.1899 24.5444 27.6014 24.1084ZM22.3684 26.8881C21.6561 27.8909 20.2813 28.1154 19.2987 27.3875C18.3153 26.6609 18.0962 25.2552 18.8088 24.2539C19.521 23.2498 20.8959 23.0253 21.8785 23.7534C22.8625 24.4811 23.0799 25.884 22.3684 26.8881Z" fill="#2854AD"/>
</g>
<defs>
<clipPath id="clip0_140_2860">
<rect width="95" height="97" fill="white"/>
</clipPath>
</defs>
</svg>
