<svg width="79" height="79" viewBox="0 0 79 79" fill="none" xmlns="http://www.w3.org/2000/svg">
<path d="M33.9173 60.8203H15.8281V64.1871H33.9173V60.8203Z" fill="#2854AD"/>
<path d="M40.5627 47.166H15.8281V50.5328H40.5627V47.166Z" fill="#2854AD"/>
<path d="M51.0644 33.5137H15.8281V36.8804H51.0644V33.5137Z" fill="#2854AD"/>
<path d="M51.0645 19.8633H34.4563V23.23H51.0645V19.8633Z" fill="#2854AD"/>
<path d="M60.6024 71.8159C60.6024 73.5484 59.1929 74.9605 57.4586 74.9605H9.43384C7.69939 74.9605 6.28989 73.5485 6.28989 71.8159V27.1559H25.5083C27.6335 27.1559 29.3621 25.4261 29.3621 23.3004V4.03965H57.4584C59.1927 4.03965 60.6022 5.44915 60.6022 7.18175V29.8742L64.6425 25.8347V7.18159C64.6425 3.22249 61.4194 0 57.4584 0H28.3184C26.224 0 24.2176 0.829963 22.7384 2.30952L4.56177 20.4875C3.08082 21.9674 2.25024 23.9756 2.25024 26.0681V71.8159C2.25024 75.7775 5.47351 79 9.43384 79H57.4586C61.4196 79 64.6427 75.7775 64.6427 71.8159V52.4964L60.6024 56.5361V71.8159ZM25.7708 4.99073V21.1388C25.7708 22.8853 25.0903 23.5645 23.3443 23.5645H7.19623L25.7708 4.99073Z" fill="#2854AD"/>
<path d="M76.1906 31.9012L71.9072 27.6178C71.1622 26.8722 69.9538 26.8722 69.2082 27.6178L66.4312 30.3948L73.4143 37.3772L76.1906 34.6003C76.9361 33.8546 76.9361 32.6468 76.1906 31.9012Z" fill="#2854AD"/>
<path d="M40.5641 56.2617L38.1836 65.6251L47.5465 63.244L40.5641 56.2617Z" fill="#2854AD"/>
<path d="M41.9922 54.8341L48.9752 61.8166L72.1446 38.6478L65.1616 31.6641L41.9922 54.8341ZM67.8599 37.5371L47.6736 57.7234L46.0866 56.1351L66.2728 35.9487L67.8599 37.5371Z" fill="#2854AD"/>
</svg>
