<svg width="70" height="70" viewBox="0 0 70 70" fill="none" xmlns="http://www.w3.org/2000/svg">
<path d="M53.5179 50.549C53.0344 51.0643 52.5321 51.5553 52.0121 52.0209L48.2824 47.86L48.2835 47.8589C48.6798 47.503 49.0664 47.1248 49.4415 46.7249C52.9248 43.0095 54.5635 38.2606 54.4163 33.5414C54.2616 28.8219 52.3246 24.1859 48.6103 20.7014C44.896 17.2169 40.1459 15.5795 35.4267 15.7267C30.7078 15.8808 26.073 17.8189 22.5873 21.5322C19.1039 25.2476 17.4653 29.9966 17.6126 34.7158C17.6954 37.2549 18.3131 39.7633 19.4273 42.0886L21.8358 40.1507L24.8491 53.8053L19.7618 51.4525L19.5945 51.6309C19.4371 51.4833 19.3019 51.3213 19.1494 51.1695L12.1601 47.9378L14.9795 45.6685C10.1176 36.8092 11.2221 25.4789 18.511 17.7082C27.5815 8.04045 42.7661 7.55618 52.4349 16.6245C62.102 25.6957 62.5873 40.8803 53.5179 50.549Z" fill="white"/>
<path d="M33.0759 52.3042C33.6069 52.3901 34.1443 52.4515 34.6856 52.4925L34.276 58.0657C33.5789 58.0144 32.8826 57.9355 32.1874 57.8225L33.0749 52.3053L33.0759 52.3042Z" fill="white"/>
<path d="M43.3289 51.0296C44.2229 50.6431 45.0915 50.1822 45.9266 49.6485L48.9404 54.3563C47.8488 55.055 46.7132 55.6556 45.5453 56.1599L43.3296 51.0302L43.3289 51.0296L43.3289 51.0296Z" fill="white"/>
<path d="M40.5386 51.9756L41.9054 57.3959C40.6595 57.7111 39.3929 57.9234 38.1191 58.0348L37.631 52.4675C38.6092 52.3815 39.5823 52.2181 40.5386 51.9756Z" fill="white"/>
</svg>
