<svg width="47" height="47" viewBox="0 0 47 47" fill="none" xmlns="http://www.w3.org/2000/svg">
<g clip-path="url(#clip0_140_2675)">
<path d="M31.8229 19.9391L26.6926 23.8966C26.4951 25.492 25.1502 26.7327 23.5001 26.7327C21.7144 26.7327 20.2675 25.2851 20.2675 23.5002C20.2675 23.431 20.2835 23.3669 20.2879 23.2984L12.7694 14.4037C12.2441 13.815 12.2353 12.967 12.7468 12.5123C13.2589 12.0562 14.099 12.1656 14.6228 12.7542L22.011 20.6472C22.4584 20.4126 22.9603 20.2677 23.5002 20.2677C24.0787 20.2677 24.6133 20.4316 25.0826 20.6975L29.9135 17.3338C30.5364 16.8748 31.4704 17.0875 31.9986 17.8074C32.5253 18.5256 32.4481 19.4808 31.8229 19.9391Z" fill="white"/>
<path d="M23.5 0C24.5301 0 25.365 0.834984 25.365 1.86513C25.365 2.89527 24.5301 3.73017 23.5 3.73017C18.0344 3.7309 13.1044 5.9399 9.52062 9.52062C5.93981 13.1036 3.73081 18.0344 3.73017 23.5C3.73081 28.9656 5.93981 33.8956 9.52062 37.4794C13.1044 41.0602 18.0344 43.2691 23.5 43.2698C28.9655 43.2691 33.8964 41.0601 37.4793 37.4794C41.0601 33.8956 43.2691 28.9656 43.2698 23.5C43.2691 19.5287 42.0976 15.8408 40.0846 12.746L38.3536 14.0398C38.1663 14.1797 37.9186 14.2147 37.6993 14.1316C37.4808 14.0486 37.3175 13.8613 37.2694 13.6311L36.1045 8.12118C35.8969 7.76482 35.808 7.35541 35.8583 6.95325L35.3316 4.46307C35.2755 4.2009 35.3782 3.9312 35.5918 3.77019C35.8067 3.61065 36.0944 3.5888 36.3305 3.71704L44.5726 8.17286C44.7795 8.28577 44.9143 8.49415 44.931 8.72795C44.9485 8.96112 44.8451 9.18841 44.6571 9.32904L43.0805 10.5071C45.5546 14.23 47.0006 18.6996 47 23.5C46.9985 36.4797 36.4797 46.9985 23.5 47C10.5202 46.9985 0.00137711 36.4797 0 23.5C0.00137711 10.5203 10.5202 0.00146875 23.5 0Z" fill="white"/>
</g>
<defs>
<clipPath id="clip0_140_2675">
<rect width="47" height="47" fill="white" transform="matrix(-1 0 0 1 47 0)"/>
</clipPath>
</defs>
</svg>
