<svg width="23" height="38" viewBox="0 0 23 38" fill="none" xmlns="http://www.w3.org/2000/svg">
<path d="M20.2482 20.1773C18.9468 19.9113 17.6752 20.7513 17.4087 22.0526C17.3191 22.4918 17.155 22.9018 16.929 23.2738C16.5899 23.8319 16.1102 24.3017 15.5438 24.6268C14.9757 24.9524 14.3296 25.1369 13.6203 25.1375C13.1517 25.1375 12.7124 25.0561 12.3031 24.9085C11.6898 24.6865 11.1446 24.3099 10.717 23.8256C10.2905 23.3406 9.97369 22.7918 9.73775 22.1721C9.43731 21.3826 9.44726 20.012 9.70027 19.2026C9.88819 18.6005 10.4471 17.6763 11.209 17.162C11.5903 16.9043 12.0091 16.7017 12.4554 16.5623C12.9022 16.4241 13.3761 16.3479 13.8751 16.3479C14.5909 16.3485 15.2568 16.5026 15.8606 16.7796C16.4639 17.056 17.0033 17.4573 17.4415 17.9505C18.2696 18.8806 19.6953 18.9637 20.6259 18.1362C21.5566 17.3085 21.6403 15.8829 20.8121 14.9516C19.9635 13.9976 18.9203 13.2197 17.7419 12.6791C16.564 12.1379 15.248 11.8363 13.8751 11.8369C13.3257 11.8369 12.7851 11.8867 12.2586 11.9792C12.866 10.8612 13.5689 9.71787 14.3537 8.5956C15.4729 6.99433 16.7532 5.43521 18.1302 4.04761C19.0076 3.16381 19.0023 1.73473 18.1173 0.857312C17.233 -0.0201048 15.8051 -0.0142415 14.9277 0.870746V0.870152C12.8221 2.99393 10.9713 5.3964 9.45965 7.82247C8.97938 8.59382 8.53362 9.36748 8.12601 10.1371C8.25308 9.45884 8.4024 8.80409 8.57288 8.17619C9.10593 6.21763 9.82451 4.50799 10.5648 3.06889C11.0966 2.03509 10.6902 0.765874 9.65641 0.234095C8.62209 -0.298352 7.35287 0.10822 6.82109 1.14194C5.96654 2.80185 5.13135 4.78617 4.50992 7.07041C4.19775 8.21835 3.93947 9.44304 3.75964 10.738V4.87753C3.75964 3.83965 2.91799 2.9986 1.87952 2.9986C0.841718 2.9986 0 3.83965 0 4.87753V17.4332V38.0001H11.7433C11.7433 38.0001 11.7433 35.6948 11.7433 34.9931C11.7433 33.4897 12.5452 32.3855 13.6481 31.7847C14.6372 31.2446 17.1588 29.8981 19.4166 27.7304C19.4324 27.7163 19.4465 27.7017 19.4618 27.6876C19.4711 27.6789 19.4811 27.67 19.4898 27.6607C19.7336 27.437 19.966 27.2009 20.1827 26.9514C21.1357 25.8515 21.8192 24.5044 22.1232 23.0172C22.3896 21.7153 21.5502 20.4443 20.2482 20.1773Z" fill="white"/>
</svg>
