<svg width="74" height="74" viewBox="0 0 74 74" fill="none" xmlns="http://www.w3.org/2000/svg">
<path d="M50.9786 27.3789C38.263 27.3789 27.9548 37.6894 27.9548 50.4027C27.9548 63.1182 38.2632 73.4264 50.9786 73.4264C63.6919 73.4266 74.0002 63.1182 74.0002 50.4028C74.0002 37.6895 63.6919 27.3789 50.9786 27.3789ZM60.1283 48.5152H53.8246L53.1451 49.5703V52.0945H60.1283V52.1035V55.1632V55.6762H53.1451V61.0846H48.8121V55.6762H41.8244V55.1632V52.1035V52.0945H48.8121V49.5748L48.1282 48.5152H41.8244V45.4532H46.1619L42.477 39.721H46.153L50.9787 47.2284L55.8043 39.721H59.4804L55.7953 45.4534H60.1283V48.5152Z" fill="white"/>
<path d="M37.6759 8.21769C37.6759 12.6159 29.3069 16.1772 18.9784 16.1772C8.64992 16.1772 0.280762 12.6159 0.280762 8.21769C0.280762 3.81944 8.64978 0.255859 18.9783 0.255859C29.3067 0.255859 37.6759 3.81944 37.6759 8.21769Z" fill="white"/>
<path d="M0.280762 21.6955C0.280762 26.0915 8.64978 29.655 18.9783 29.655C29.3067 29.655 37.6758 26.0915 37.6758 21.6955V19.7157C37.6758 19.1083 37.3698 18.5391 36.8636 18.2039C36.3573 17.8709 35.714 17.8103 35.1561 18.0487C35.1561 18.0487 29.3067 21.664 18.9783 21.664C8.64978 21.664 2.80493 18.0486 2.80493 18.0486C2.24253 17.8101 1.59907 17.8709 1.09513 18.2038C0.586726 18.5391 0.280762 19.1083 0.280762 19.7157V21.6955Z" fill="white"/>
<path d="M25.0211 35.1582C23.4958 37.723 22.3597 40.526 21.6691 43.4957C20.7849 43.5542 19.8917 43.5789 18.9738 43.5789C8.65428 43.5789 0.282959 40.013 0.282959 35.6103V33.6418C0.282959 33.0343 0.582156 32.4628 1.09517 32.1277C1.59465 31.7946 2.24027 31.734 2.8005 31.9724C2.8005 31.9724 8.65428 35.5856 18.9738 35.5856C21.2056 35.5856 23.2213 35.4191 25.0211 35.1582Z" fill="white"/>
<path d="M21.6938 57.4155C20.8119 57.4762 19.8917 57.4987 18.9738 57.4987C8.65428 57.4987 0.282959 53.9328 0.282959 49.5436V47.5639C0.282959 46.9564 0.582156 46.3828 1.09517 46.0476C1.59464 45.7145 2.24027 45.6539 2.8005 45.8924C2.8005 45.8924 8.65428 49.5076 18.9738 49.5076C19.6308 49.5076 20.2629 49.4964 20.8816 49.4716C20.8591 49.7821 20.8591 50.0926 20.8591 50.4031C20.8591 52.8102 21.1448 55.1611 21.6938 57.4155Z" fill="white"/>
<path d="M28.4092 70.3214C25.6398 71.0233 22.4227 71.4192 18.9738 71.4192C8.65428 71.4192 0.282959 67.8512 0.282959 63.4619V61.4821C0.282959 60.8746 0.582156 60.301 1.09517 59.968C1.59465 59.6349 2.24027 59.5743 2.8005 59.8105C2.8005 59.8105 8.65428 63.4257 18.9738 63.4257C20.6679 63.4257 22.2539 63.3313 23.6984 63.1625C24.9267 65.777 26.5128 68.1864 28.4092 70.3214Z" fill="white"/>
</svg>
