<?xml version="1.0" encoding="utf-8"?>
<!-- Generator: Adobe Illustrator 16.0.3, SVG Export Plug-In . SVG Version: 6.00 Build 0)  -->
<!DOCTYPE svg PUBLIC "-//W3C//DTD SVG 1.1//EN" "http://www.w3.org/Graphics/SVG/1.1/DTD/svg11.dtd">
<svg version="1.1" id="レイヤー_1" xmlns="http://www.w3.org/2000/svg" xmlns:xlink="http://www.w3.org/1999/xlink" x="0px"
	 y="0px" width="50px" height="50px" viewBox="475 150 50 50" enable-background="new 475 150 50 50" xml:space="preserve">
<path fill="#009ECE" d="M520.313,156.25h-40.625c-2.589,0-4.688,2.099-4.688,4.688v28.125c0,2.589,2.099,4.688,4.688,4.688h40.625
	c2.589,0,4.688-2.099,4.688-4.688v-28.125C525,158.349,522.901,156.25,520.313,156.25z M520.313,160.938v3.984
	c-2.189,1.783-5.681,4.557-13.144,10.4c-1.645,1.293-4.902,4.401-7.169,4.365c-2.267,0.036-5.525-3.072-7.169-4.365
	c-7.462-5.844-10.954-8.616-13.144-10.4v-3.984H520.313z M479.688,189.063v-18.125c2.238,1.782,5.411,4.283,10.248,8.07
	c2.134,1.681,5.872,5.39,10.064,5.367c4.172,0.022,7.862-3.633,10.063-5.366c4.837-3.787,8.011-6.289,10.249-8.071v18.125H479.688z"
	/>
</svg>
