<svg width="43" height="43" viewBox="0 0 43 43" fill="none" xmlns="http://www.w3.org/2000/svg">
<path d="M42.8947 9.26844C42.716 8.36527 42.313 7.51165 41.7251 6.794C41.6057 6.64334 41.4808 6.5093 41.3442 6.37333C40.2983 5.32184 38.8434 4.71875 37.3524 4.71875H5.64745C4.13984 4.71875 2.72193 5.30664 1.65491 6.37391C1.51987 6.50863 1.39464 6.64401 1.27068 6.79946C0.685313 7.51409 0.284119 8.36653 0.109684 9.27096C0.0367852 9.62612 0 9.99414 0 10.3664V32.6338C0 33.4085 0.157387 34.1628 0.469389 34.88C0.739398 35.5168 1.14907 36.1206 1.65458 36.6258C1.7819 36.7526 1.90838 36.8695 2.04342 36.9834C3.05409 37.8204 4.33385 38.281 5.64745 38.281H37.3524C38.6745 38.281 39.953 37.8187 40.9609 36.9742C41.0957 36.8652 41.2205 36.7507 41.3454 36.6258C41.834 36.1377 42.2224 35.5769 42.5016 34.9584L42.5383 34.8702C42.8445 34.1667 43 33.4148 43 32.6339V10.3664C43 9.99902 42.9646 9.62856 42.8947 9.26844ZM2.92459 8.32302C3.00446 8.20612 3.10641 8.0861 3.23651 7.955C3.88226 7.30958 4.73865 6.95441 5.64736 6.95441H37.3523C38.269 6.95441 39.1256 7.31017 39.7642 7.95626C39.8745 8.06771 39.9798 8.19142 40.0717 8.31505L40.3142 8.6409L23.3913 23.3899C22.8696 23.8473 22.1979 24.099 21.4997 24.099C20.8085 24.099 20.1374 23.8479 19.6094 23.3905L2.70346 8.6451L2.92459 8.32302ZM2.247 32.8304C2.23785 32.7698 2.23575 32.7024 2.23575 32.6338V10.8275L15.3684 22.2839L2.36828 33.6185L2.247 32.8304ZM39.0443 35.5958C38.536 35.889 37.9506 36.0446 37.3524 36.0446H5.64745C5.04889 36.0446 4.46377 35.889 3.95583 35.5958L3.42438 35.2877L16.8565 23.5821L18.3286 24.8625C19.2116 25.6291 20.3377 26.0517 21.4999 26.0517C22.6665 26.0517 23.7944 25.6291 24.6768 24.8625L26.1483 23.5815L39.5758 35.2884L39.0443 35.5958ZM40.7637 32.6338C40.7637 32.7013 40.7624 32.7679 40.7539 32.8273L40.6375 33.6228L27.6319 22.29L40.7637 10.8331V32.6338Z" fill="white"/>
</svg>
